# xmcd
#
# Track frame offsets: 
#        150
#        16154
#        31700
#        46938
#        63346
#        77576
#        92922
#        108285
#        126463
#        145093
#        160348
#        177807
#        192608
#        210164
#        228126
#        243818
#        257569
#        271074
#        281359
#        297367
#        314710
#        330090
#
# Disc length: 4612 seconds
#
# Revision: 2
# Processed by: cddbd v1.5.2PL0 Copyright (c) Steve Scherf et al.
# Submitted via: ExactAudioCopyFreeDBPlugin 1.0
#
DISCID=23120216
DTITLE=Various Artist - Hit Country 2016
DYEAR=2016
DGENRE=Country
TTITLE0=Adam Brand and the Outlaws - Good Year for the Outlaw
TTITLE1=Dean Brody - Bring Down the House
TTITLE2=Miranda Lambert - Little Red Wagon
TTITLE3=Florida Georgia Line - Anything Goes
TTITLE4=The Wolfe Brothers - One Beer At A Time
TTITLE5=Morgan Evans - Best I Never Had
TTITLE6=Zac Brown Band - Homegrown
TTITLE7=Adam Eckersley Band - Wheels
TTITLE8=Jasmine Rae - When I Found You
TTITLE9=Sunny Sweeney - My Bed (ft Will Hoge)
TTITLE10=Lee Kernaghan - I Will Always Be With You
TTITLE11=Jayne Denham - Grew Up 'Round Trucks
TTITLE12=Blake Shelton - Sangria
TTITLE13=Shane Nicholson - Secondhand Man
TTITLE14=Caitlyn Shadbolt - Shoot Out The Lights
TTITLE15=Kenny Chesney - Save It for a Rainy Day
TTITLE16=Catherine Britt - Boneshaker
TTITLE17=Kip Moore - I'm To Blame
TTITLE18=Christie Lamb - Love Me Tonight
TTITLE19=Troy Kemp - How We Roll Around Here
TTITLE20=Tori Darke - So Gone
TTITLE21=Deep Creek Road - What If I Was Willing
EXTD=5364164
EXTT0=
EXTT1=
EXTT2=
EXTT3=
EXTT4=
EXTT5=
EXTT6=
EXTT7=
EXTT8=
EXTT9=
EXTT10=
EXTT11=
EXTT12=
EXTT13=
EXTT14=
EXTT15=
EXTT16=
EXTT17=
EXTT18=
EXTT19=
EXTT20=
EXTT21=
PLAYORDER=
